<svg id="svg" version="1.1" xmlns="http://www.w3.org/2000/svg" xmlns:xlink="http://www.w3.org/1999/xlink" width="400" height="164.66591166477917" viewBox="0, 0, 400,164.66591166477917"><g id="svgg"><path id="path0" d="M44.179 46.852 C 40.581 47.939,39.664 52.995,42.650 55.275 C 45.853 57.721,50.414 55.495,50.388 51.500 C 50.366 48.276,47.233 45.930,44.179 46.852 M35.833 54.388 C 34.833 54.723,34.594 54.960,30.201 59.965 C 25.213 65.649,25.118 65.791,25.202 67.417 C 25.306 69.440,25.871 69.996,29.167 71.324 C 30.313 71.785,32.412 72.632,33.833 73.206 L 36.417 74.250 36.500 80.167 C 36.595 86.883,36.581 86.815,37.956 87.502 C 38.835 87.941,39.455 87.868,40.295 87.227 C 41.326 86.441,41.334 86.376,41.326 79.047 C 41.317 70.764,41.392 71.046,38.923 69.983 C 38.370 69.745,36.885 69.107,35.625 68.567 C 34.365 68.027,33.333 67.528,33.333 67.459 C 33.333 67.358,35.520 64.796,38.198 61.758 L 38.646 61.250 41.365 63.942 C 44.683 67.228,44.198 67.040,49.180 66.970 L 52.944 66.917 53.555 66.450 C 55.011 65.339,55.018 63.667,53.573 62.564 L 52.943 62.083 49.597 62.029 L 46.250 61.974 42.500 58.255 C 38.188 53.978,37.773 53.738,35.833 54.388 M21.750 75.326 C 14.022 76.981,10.967 86.732,16.403 92.392 C 22.884 99.139,34.066 94.724,34.067 85.417 C 34.067 78.913,28.044 73.979,21.750 75.326 M51.906 75.327 C 44.527 76.908,41.334 85.992,46.106 91.828 C 51.315 98.198,61.415 96.262,63.875 88.422 C 66.171 81.110,59.414 73.718,51.906 75.327 M26.216 77.947 C 30.161 79.187,32.462 83.378,31.411 87.411 C 29.576 94.456,19.787 95.276,16.755 88.639 C 13.975 82.553,19.827 75.940,26.216 77.947 M56.424 77.926 C 59.506 78.769,61.833 81.981,61.833 85.391 C 61.833 92.506,53.125 95.934,48.327 90.708 C 42.936 84.834,48.658 75.801,56.424 77.926 " stroke="none" fill="#f8f8f8" fill-rule="evenodd"></path><path id="path1" d="M34.932 32.309 C 34.883 32.387,34.150 32.504,33.301 32.568 C 32.453 32.632,31.719 32.742,31.671 32.813 C 31.623 32.884,30.927 33.037,30.125 33.155 C 29.323 33.272,28.667 33.423,28.667 33.491 C 28.667 33.558,28.142 33.707,27.500 33.822 C 26.858 33.936,26.333 34.090,26.333 34.163 C 26.333 34.236,26.052 34.349,25.708 34.413 C 25.365 34.478,24.783 34.665,24.417 34.829 C 24.050 34.994,23.398 35.287,22.967 35.481 C 22.537 35.675,22.106 35.833,22.009 35.833 C 21.912 35.833,21.833 35.896,21.833 35.973 C 21.833 36.050,21.533 36.212,21.167 36.333 C 20.800 36.454,20.500 36.601,20.500 36.660 C 20.500 36.718,20.238 36.861,19.917 36.977 C 19.596 37.093,19.333 37.253,19.333 37.333 C 19.333 37.412,19.174 37.528,18.979 37.590 C 18.626 37.702,16.772 38.906,16.374 39.281 C 16.259 39.389,16.015 39.526,15.832 39.584 C 15.650 39.642,15.500 39.761,15.500 39.850 C 15.500 39.938,15.369 40.059,15.208 40.118 C 15.048 40.177,14.767 40.355,14.583 40.513 C 14.400 40.671,13.877 41.127,13.421 41.525 C 12.966 41.924,12.491 42.325,12.366 42.417 C 11.710 42.899,8.742 46.088,8.431 46.645 C 8.348 46.794,8.179 46.977,8.056 47.050 C 7.934 47.123,7.833 47.267,7.833 47.369 C 7.833 47.472,7.718 47.674,7.578 47.819 C 6.992 48.426,6.500 49.097,6.500 49.292 C 6.500 49.406,6.421 49.500,6.325 49.500 C 6.228 49.500,6.071 49.725,5.975 50.000 C 5.879 50.275,5.739 50.500,5.663 50.500 C 5.588 50.500,5.439 50.762,5.333 51.083 C 5.227 51.404,5.081 51.667,5.007 51.667 C 4.934 51.667,4.775 51.910,4.655 52.208 C 4.534 52.506,4.393 52.788,4.341 52.833 C 4.170 52.984,3.333 54.750,3.333 54.961 C 3.333 55.074,3.259 55.167,3.169 55.167 C 3.079 55.167,2.920 55.504,2.816 55.917 C 2.712 56.329,2.571 56.667,2.503 56.667 C 2.435 56.667,2.283 57.117,2.167 57.667 C 2.050 58.217,1.898 58.667,1.829 58.667 C 1.760 58.667,1.653 58.938,1.590 59.271 C 1.528 59.603,1.412 59.996,1.333 60.146 C 1.136 60.516,0.833 61.886,0.833 62.407 C 0.833 62.642,0.768 62.833,0.689 62.833 C 0.123 62.833,-0.161 74.308,0.319 77.792 C 0.448 78.731,0.607 79.500,0.672 79.500 C 0.737 79.500,0.839 79.933,0.899 80.461 C 0.959 80.990,1.111 81.621,1.237 81.864 C 1.363 82.107,1.518 82.612,1.581 82.986 C 1.644 83.361,1.754 83.667,1.825 83.667 C 1.896 83.667,2.050 84.117,2.167 84.667 C 2.283 85.217,2.435 85.667,2.504 85.667 C 2.573 85.667,2.730 86.004,2.851 86.417 C 2.973 86.829,3.120 87.167,3.177 87.167 C 3.234 87.167,3.370 87.467,3.480 87.833 C 3.590 88.200,3.746 88.500,3.827 88.500 C 3.907 88.500,4.023 88.725,4.083 89.000 C 4.144 89.275,4.247 89.500,4.313 89.500 C 4.379 89.500,4.528 89.763,4.644 90.083 C 4.760 90.404,4.920 90.667,5.000 90.667 C 5.079 90.667,5.194 90.824,5.255 91.017 C 5.358 91.341,5.964 92.344,6.308 92.760 C 6.389 92.858,6.550 93.116,6.667 93.333 C 6.913 93.794,7.137 94.083,7.542 94.465 C 7.702 94.617,7.833 94.833,7.833 94.945 C 7.833 95.058,7.927 95.210,8.042 95.283 C 8.156 95.357,8.512 95.754,8.832 96.167 C 9.153 96.579,9.659 97.141,9.957 97.416 C 10.256 97.690,10.500 97.971,10.500 98.041 C 10.500 98.211,11.798 99.500,11.970 99.500 C 12.045 99.500,12.258 99.669,12.443 99.875 C 12.628 100.081,13.139 100.550,13.579 100.917 C 14.019 101.283,14.498 101.715,14.643 101.875 C 14.788 102.035,15.006 102.167,15.126 102.167 C 15.246 102.167,15.384 102.272,15.434 102.401 C 15.483 102.531,15.744 102.727,16.012 102.838 C 16.280 102.949,16.500 103.097,16.500 103.167 C 16.500 103.236,16.725 103.386,17.000 103.500 C 17.275 103.614,17.500 103.757,17.500 103.818 C 17.500 103.879,17.912 104.151,18.416 104.423 C 18.920 104.694,19.332 104.959,19.333 105.011 C 19.333 105.062,19.596 105.207,19.917 105.333 C 20.237 105.459,20.500 105.611,20.500 105.671 C 20.500 105.731,20.800 105.879,21.167 106.000 C 21.533 106.121,21.833 106.276,21.833 106.343 C 21.833 106.411,22.208 106.557,22.667 106.667 C 23.125 106.777,23.500 106.933,23.500 107.013 C 23.500 107.094,23.706 107.211,23.958 107.273 C 24.210 107.335,24.567 107.481,24.750 107.597 C 24.933 107.714,25.365 107.860,25.708 107.923 C 26.052 107.986,26.333 108.097,26.333 108.170 C 26.333 108.243,26.858 108.397,27.500 108.512 C 28.142 108.626,28.667 108.775,28.667 108.843 C 28.667 108.910,29.323 109.061,30.125 109.179 C 30.927 109.296,31.621 109.445,31.667 109.509 C 32.108 110.130,46.085 110.123,46.500 109.502 C 46.546 109.433,47.240 109.280,48.042 109.162 C 48.844 109.043,49.500 108.892,49.500 108.825 C 49.500 108.758,49.987 108.606,50.583 108.488 C 51.179 108.369,51.667 108.217,51.667 108.149 C 51.667 108.082,51.910 107.975,52.208 107.911 C 52.506 107.848,53.065 107.654,53.449 107.481 C 53.834 107.308,54.265 107.167,54.408 107.167 C 54.550 107.167,54.667 107.104,54.667 107.026 C 54.667 106.949,54.967 106.796,55.333 106.686 C 55.700 106.577,56.000 106.427,56.000 106.353 C 56.000 106.280,56.300 106.130,56.667 106.020 C 57.033 105.910,57.333 105.760,57.333 105.686 C 57.333 105.613,57.624 105.466,57.980 105.359 C 58.336 105.252,58.720 105.053,58.834 104.916 C 58.948 104.779,59.110 104.667,59.194 104.667 C 59.351 104.667,60.231 104.080,60.632 103.708 C 60.756 103.594,60.967 103.500,61.100 103.500 C 61.234 103.500,61.387 103.388,61.440 103.250 C 61.492 103.112,61.640 103.000,61.766 103.000 C 61.893 103.000,62.091 102.850,62.205 102.667 C 62.320 102.483,62.500 102.333,62.606 102.333 C 62.712 102.333,62.975 102.147,63.191 101.920 C 63.407 101.692,63.652 101.504,63.735 101.503 C 63.818 101.501,64.156 101.237,64.485 100.915 C 64.814 100.594,65.740 99.713,66.542 98.959 C 67.344 98.204,68.000 97.529,68.000 97.460 C 68.000 97.390,68.281 97.044,68.625 96.691 C 69.565 95.726,70.191 94.960,70.382 94.542 C 70.476 94.335,70.618 94.167,70.698 94.167 C 70.777 94.167,70.913 93.979,71.000 93.750 C 71.087 93.521,71.221 93.333,71.298 93.333 C 71.375 93.333,71.540 93.074,71.664 92.757 C 71.788 92.440,71.990 92.142,72.112 92.096 C 72.234 92.049,72.333 91.896,72.333 91.755 C 72.333 91.615,72.394 91.500,72.469 91.500 C 72.543 91.500,72.707 91.237,72.833 90.917 C 72.959 90.596,73.120 90.333,73.191 90.333 C 73.262 90.333,73.410 90.033,73.520 89.667 C 73.630 89.300,73.767 89.000,73.826 89.000 C 73.885 89.000,74.034 88.719,74.157 88.375 C 74.280 88.031,74.429 87.712,74.488 87.667 C 74.669 87.527,75.500 85.560,75.500 85.271 C 75.500 85.122,75.568 85.000,75.650 85.000 C 75.733 85.000,75.893 84.606,76.008 84.125 C 76.122 83.644,76.264 83.212,76.324 83.167 C 76.384 83.121,76.534 82.558,76.657 81.917 C 76.780 81.275,76.937 80.712,77.005 80.667 C 77.073 80.621,77.227 79.871,77.347 79.000 C 77.468 78.129,77.645 77.363,77.741 77.298 C 77.999 77.123,77.983 65.465,77.724 65.151 C 77.619 65.022,77.437 64.185,77.321 63.292 C 77.204 62.398,77.059 61.667,76.998 61.667 C 76.937 61.667,76.788 61.142,76.667 60.500 C 76.546 59.858,76.392 59.333,76.325 59.333 C 76.258 59.333,76.152 59.052,76.088 58.708 C 76.024 58.365,75.872 57.858,75.749 57.583 C 75.627 57.308,75.474 56.896,75.410 56.667 C 75.346 56.438,75.199 56.137,75.082 56.000 C 74.966 55.862,74.819 55.506,74.755 55.208 C 74.692 54.910,74.583 54.667,74.513 54.667 C 74.443 54.667,74.296 54.367,74.186 54.000 C 74.077 53.633,73.921 53.333,73.840 53.333 C 73.759 53.333,73.644 53.109,73.584 52.834 C 73.523 52.560,73.382 52.279,73.269 52.209 C 73.156 52.140,72.958 51.821,72.830 51.500 C 72.701 51.179,72.535 50.842,72.461 50.750 C 72.388 50.658,72.181 50.406,72.002 50.189 C 71.823 49.971,71.632 49.653,71.577 49.480 C 71.522 49.308,71.413 49.167,71.333 49.167 C 71.254 49.167,71.142 49.017,71.084 48.834 C 71.026 48.652,70.887 48.408,70.775 48.293 C 70.663 48.178,70.318 47.727,70.007 47.292 C 69.697 46.856,69.381 46.500,69.305 46.500 C 69.229 46.500,69.167 46.422,69.167 46.328 C 69.167 46.177,67.805 44.667,66.714 43.608 C 66.511 43.411,65.904 42.819,65.365 42.292 C 64.825 41.765,64.333 41.333,64.270 41.333 C 64.207 41.333,63.935 41.108,63.667 40.833 C 63.398 40.558,63.119 40.333,63.047 40.333 C 62.923 40.333,62.263 39.836,61.625 39.262 C 61.465 39.118,61.291 39.000,61.239 39.000 C 61.187 39.000,60.899 38.813,60.598 38.583 C 60.298 38.354,59.965 38.167,59.859 38.167 C 59.753 38.167,59.667 38.106,59.667 38.031 C 59.667 37.957,59.404 37.793,59.083 37.667 C 58.762 37.541,58.500 37.383,58.500 37.315 C 58.500 37.248,58.237 37.106,57.917 37.000 C 57.596 36.894,57.333 36.741,57.333 36.660 C 57.333 36.580,57.033 36.423,56.667 36.314 C 56.300 36.204,56.000 36.051,56.000 35.974 C 56.000 35.896,55.891 35.833,55.759 35.833 C 55.626 35.833,55.165 35.646,54.734 35.417 C 54.303 35.188,53.812 35.000,53.642 35.000 C 53.472 35.000,53.333 34.930,53.333 34.845 C 53.333 34.760,52.921 34.598,52.417 34.485 C 51.913 34.373,51.500 34.226,51.500 34.159 C 51.500 34.092,51.012 33.946,50.417 33.833 C 49.821 33.721,49.333 33.575,49.333 33.508 C 49.333 33.441,48.677 33.287,47.875 33.164 C 47.073 33.041,46.377 32.883,46.329 32.813 C 46.281 32.742,45.547 32.632,44.699 32.568 C 43.850 32.504,43.117 32.387,43.068 32.309 C 43.020 32.231,41.189 32.167,39.000 32.167 C 36.811 32.167,34.980 32.231,34.932 32.309 M318.456 38.349 C 317.377 38.412,316.402 38.537,316.289 38.627 C 316.176 38.718,315.729 38.843,315.296 38.905 C 314.862 38.968,314.469 39.082,314.421 39.160 C 314.373 39.237,313.959 39.390,313.501 39.500 C 313.042 39.610,312.667 39.767,312.667 39.850 C 312.667 39.932,312.567 40.000,312.445 40.000 C 312.195 40.000,310.835 40.866,310.091 41.498 C 309.168 42.284,308.000 43.562,308.000 43.788 C 308.000 43.885,307.887 44.008,307.750 44.060 C 307.612 44.113,307.498 44.252,307.496 44.370 C 307.494 44.487,307.346 44.771,307.167 45.000 C 306.987 45.229,306.839 45.548,306.837 45.708 C 306.835 45.869,306.766 46.000,306.683 46.000 C 306.601 46.000,306.440 46.394,306.326 46.875 C 306.212 47.356,306.067 47.788,306.004 47.833 C 305.808 47.976,305.500 50.254,305.500 51.564 C 305.500 52.251,305.425 52.860,305.333 52.917 C 305.239 52.975,305.167 53.780,305.167 54.760 L 305.167 56.500 302.164 56.500 L 299.161 56.500 299.205 60.708 L 299.250 64.917 302.208 64.962 L 305.167 65.008 305.167 81.501 L 305.167 97.994 305.542 98.085 C 305.748 98.135,308.354 98.156,311.333 98.130 L 316.750 98.083 316.792 81.542 L 316.835 65.000 320.737 65.000 C 322.883 65.000,324.758 64.954,324.903 64.899 C 325.134 64.810,325.167 64.278,325.167 60.649 L 325.167 56.500 321.000 56.500 L 316.833 56.500 316.836 55.208 C 316.840 53.472,317.114 50.969,317.313 50.846 C 317.401 50.791,317.527 50.535,317.592 50.277 C 317.656 50.018,317.812 49.767,317.938 49.719 C 318.064 49.670,318.167 49.524,318.167 49.394 C 318.167 49.263,318.298 49.109,318.458 49.051 C 318.619 48.994,318.884 48.809,319.048 48.640 C 319.212 48.471,319.493 48.333,319.673 48.333 C 319.853 48.333,320.000 48.266,320.000 48.184 C 320.000 47.781,323.278 47.552,325.167 47.823 C 326.592 48.027,326.500 48.332,326.500 43.412 L 326.500 39.027 325.708 38.836 C 323.641 38.336,321.340 38.181,318.456 38.349 M139.696 40.187 C 139.208 40.268,138.696 40.446,138.559 40.584 C 138.422 40.721,138.201 40.833,138.068 40.833 C 137.685 40.833,136.309 42.191,136.040 42.833 C 135.906 43.154,135.711 43.470,135.606 43.536 C 135.355 43.693,135.343 48.129,135.593 48.298 C 135.690 48.363,135.868 48.660,135.988 48.958 C 136.109 49.256,136.268 49.500,136.342 49.500 C 136.417 49.500,136.521 49.638,136.575 49.807 C 136.628 49.975,136.877 50.219,137.128 50.348 C 137.378 50.477,137.643 50.677,137.717 50.791 C 137.790 50.906,137.953 51.000,138.080 51.000 C 138.206 51.000,138.412 51.102,138.537 51.228 C 138.966 51.656,141.996 52.136,142.560 51.865 C 142.756 51.770,143.277 51.650,143.718 51.598 C 144.159 51.546,144.634 51.390,144.772 51.252 C 144.910 51.113,145.119 51.000,145.236 51.000 C 145.353 51.000,145.584 50.850,145.750 50.667 C 145.916 50.483,146.154 50.333,146.279 50.333 C 146.405 50.333,146.593 50.146,146.697 49.917 C 146.801 49.688,146.941 49.500,147.007 49.500 C 147.072 49.500,147.225 49.256,147.345 48.958 C 147.466 48.660,147.644 48.363,147.741 48.298 C 148.070 48.075,147.968 43.777,147.625 43.435 C 147.465 43.274,147.333 43.039,147.333 42.913 C 147.333 42.787,147.239 42.623,147.125 42.550 C 147.010 42.477,146.820 42.229,146.702 42.000 C 146.500 41.606,145.825 41.100,145.088 40.789 C 144.907 40.712,144.718 40.583,144.668 40.501 C 144.416 40.094,141.402 39.903,139.696 40.187 M201.341 40.190 C 200.841 40.273,200.391 40.397,200.341 40.465 C 200.291 40.534,200.041 40.682,199.785 40.794 C 199.530 40.907,199.230 41.075,199.119 41.169 C 198.301 41.856,198.030 42.162,197.822 42.631 C 197.692 42.926,197.532 43.167,197.467 43.167 C 197.068 43.167,196.853 46.249,197.146 47.764 C 197.300 48.558,198.423 50.333,198.771 50.333 C 198.903 50.333,199.051 50.439,199.101 50.568 C 199.150 50.697,199.429 50.899,199.720 51.017 C 200.012 51.135,200.295 51.296,200.349 51.375 C 200.403 51.454,200.874 51.563,201.396 51.617 C 201.917 51.670,202.383 51.779,202.431 51.857 C 202.547 52.044,204.121 52.043,204.236 51.855 C 204.285 51.776,204.658 51.673,205.064 51.628 C 205.791 51.546,207.333 50.910,207.333 50.692 C 207.333 50.631,207.550 50.485,207.816 50.368 C 208.081 50.250,208.390 49.932,208.503 49.661 C 208.615 49.389,208.773 49.167,208.854 49.167 C 208.935 49.167,209.092 48.829,209.202 48.417 C 209.312 48.004,209.462 47.667,209.535 47.667 C 209.607 47.667,209.667 46.879,209.667 45.917 C 209.667 44.954,209.610 44.167,209.541 44.167 C 209.471 44.167,209.319 43.861,209.203 43.488 C 209.086 43.115,208.899 42.690,208.787 42.544 C 208.235 41.824,207.107 40.855,206.705 40.754 C 206.457 40.691,206.213 40.576,206.165 40.497 C 205.916 40.094,203.025 39.911,201.341 40.190 M86.041 70.208 L 86.083 98.250 96.417 98.292 C 107.644 98.337,114.292 98.053,114.667 97.514 C 114.712 97.448,115.294 97.298,115.958 97.182 C 116.623 97.065,117.167 96.913,117.167 96.845 C 117.167 96.776,117.579 96.627,118.083 96.515 C 118.587 96.402,119.000 96.252,119.000 96.181 C 119.000 96.111,119.300 95.963,119.667 95.853 C 120.033 95.743,120.333 95.589,120.333 95.511 C 120.333 95.433,120.507 95.326,120.719 95.273 C 120.932 95.219,121.288 95.025,121.511 94.841 C 121.734 94.657,121.996 94.440,122.094 94.359 C 122.191 94.278,122.440 94.121,122.647 94.010 C 123.079 93.779,124.231 92.615,124.635 92.000 C 124.785 91.771,125.004 91.523,125.121 91.450 C 125.238 91.377,125.333 91.208,125.333 91.075 C 125.333 90.942,125.399 90.833,125.480 90.833 C 125.560 90.833,125.726 90.590,125.848 90.292 C 125.970 89.994,126.163 89.654,126.278 89.536 C 126.393 89.419,126.536 89.063,126.595 88.745 C 126.655 88.427,126.764 88.167,126.837 88.167 C 126.910 88.167,127.061 87.623,127.172 86.958 C 127.284 86.294,127.459 85.696,127.562 85.631 C 127.819 85.468,127.826 78.372,127.570 78.202 C 127.471 78.137,127.292 77.615,127.172 77.042 C 127.052 76.469,126.902 76.000,126.837 76.000 C 126.772 76.000,126.632 75.709,126.526 75.353 C 126.419 74.997,126.220 74.613,126.083 74.499 C 125.945 74.386,125.833 74.192,125.833 74.069 C 125.833 73.946,125.683 73.765,125.500 73.667 C 125.317 73.569,125.167 73.408,125.167 73.309 C 125.167 72.843,122.575 70.679,121.708 70.422 C 121.502 70.361,121.333 70.241,121.333 70.155 C 121.333 70.070,121.259 70.000,121.168 70.000 C 121.077 70.000,120.634 69.839,120.182 69.641 C 119.258 69.238,119.300 69.035,120.380 68.679 C 120.721 68.566,121.000 68.410,121.000 68.332 C 121.000 68.253,121.164 68.137,121.365 68.073 C 121.832 67.925,124.167 65.568,124.167 65.245 C 124.167 65.110,124.244 65.000,124.337 65.000 C 124.431 65.000,124.580 64.813,124.667 64.583 C 124.754 64.354,124.896 64.167,124.983 64.167 C 125.069 64.167,125.190 63.942,125.250 63.667 C 125.310 63.392,125.417 63.167,125.487 63.167 C 125.557 63.167,125.710 62.735,125.827 62.208 C 125.944 61.681,126.110 61.206,126.196 61.151 C 126.615 60.885,126.615 53.792,126.195 53.510 C 126.119 53.459,125.958 52.948,125.839 52.375 C 125.719 51.802,125.562 51.333,125.490 51.333 C 125.419 51.333,125.310 51.108,125.250 50.833 C 125.190 50.558,125.079 50.333,125.005 50.333 C 124.930 50.333,124.826 50.160,124.773 49.947 C 124.719 49.735,124.542 49.397,124.380 49.196 C 124.217 48.995,123.933 48.629,123.750 48.384 C 123.453 47.985,122.567 47.083,121.566 46.157 C 121.373 45.979,121.127 45.833,121.019 45.833 C 120.911 45.833,120.780 45.721,120.727 45.583 C 120.674 45.446,120.557 45.333,120.466 45.333 C 120.376 45.333,120.098 45.188,119.849 45.011 C 119.600 44.834,119.195 44.638,118.948 44.576 C 118.702 44.514,118.500 44.413,118.500 44.352 C 118.500 44.290,118.144 44.137,117.708 44.012 C 117.273 43.887,116.842 43.729,116.750 43.661 C 116.658 43.593,116.133 43.440,115.583 43.321 C 115.033 43.201,114.546 43.056,114.500 42.996 C 114.396 42.863,111.806 42.499,110.958 42.500 C 110.615 42.500,110.333 42.425,110.333 42.333 C 110.333 42.224,106.167 42.167,98.166 42.167 L 85.999 42.167 86.041 70.208 M332.667 51.417 L 332.667 56.500 329.583 56.500 L 326.500 56.500 326.500 60.667 L 326.500 64.833 329.583 64.833 L 332.667 64.833 332.667 76.821 C 332.667 88.347,332.771 91.324,333.180 91.472 C 333.264 91.503,333.333 91.683,333.333 91.873 C 333.333 92.206,334.102 93.997,334.317 94.167 C 334.376 94.212,334.514 94.456,334.625 94.708 C 334.736 94.960,334.903 95.167,334.996 95.167 C 335.090 95.167,335.167 95.261,335.167 95.376 C 335.167 95.623,335.960 96.393,336.375 96.548 C 336.535 96.607,336.667 96.724,336.667 96.808 C 336.667 96.891,336.910 97.058,337.208 97.179 C 337.506 97.299,337.787 97.440,337.833 97.491 C 338.035 97.715,339.152 98.171,339.917 98.342 C 340.375 98.444,340.930 98.615,341.150 98.722 C 341.669 98.974,348.295 98.990,348.466 98.740 C 348.530 98.646,349.177 98.471,349.902 98.352 C 351.781 98.044,351.667 98.358,351.667 93.518 L 351.667 89.346 349.042 89.372 C 346.851 89.395,346.334 89.352,345.917 89.117 C 345.642 88.962,345.328 88.835,345.220 88.834 C 345.113 88.834,344.831 88.425,344.595 87.927 L 344.167 87.021 344.167 75.927 L 344.167 64.833 347.667 64.833 L 351.167 64.833 351.167 60.667 L 351.167 56.500 347.667 56.500 L 344.167 56.500 344.167 51.417 L 344.167 46.333 338.417 46.333 L 332.667 46.333 332.667 51.417 M47.667 47.142 C 51.281 49.003,51.339 53.955,47.769 55.779 C 43.370 58.027,38.892 52.816,41.696 48.713 C 42.978 46.835,45.686 46.123,47.667 47.142 M109.410 52.187 C 110.101 52.290,110.667 52.436,110.667 52.513 C 110.667 52.589,110.935 52.702,111.263 52.763 C 111.591 52.825,111.899 52.978,111.948 53.104 C 111.996 53.230,112.131 53.333,112.247 53.333 C 112.483 53.333,113.833 54.738,113.833 54.984 C 113.833 55.072,113.950 55.259,114.092 55.401 C 114.701 56.010,114.785 61.266,114.189 61.465 C 114.095 61.496,113.931 61.788,113.823 62.114 C 113.628 62.705,112.753 63.653,112.393 63.662 C 112.288 63.664,112.159 63.779,112.106 63.917 C 112.054 64.054,111.901 64.167,111.767 64.167 C 111.633 64.167,111.416 64.274,111.285 64.405 C 111.154 64.537,110.567 64.740,109.982 64.858 C 109.396 64.976,108.867 65.144,108.806 65.232 C 108.741 65.325,106.466 65.423,103.347 65.468 L 98.000 65.544 98.000 58.772 L 98.000 52.000 103.077 52.000 C 105.970 52.000,108.694 52.080,109.410 52.187 M38.083 54.352 C 38.628 54.502,39.435 55.215,42.500 58.255 L 46.250 61.974 49.597 62.029 L 52.943 62.083 53.573 62.564 C 55.018 63.667,55.011 65.339,53.555 66.450 L 52.944 66.917 49.180 66.970 C 44.198 67.040,44.683 67.228,41.365 63.942 L 38.646 61.250 38.198 61.758 C 35.520 64.796,33.333 67.358,33.333 67.459 C 33.333 67.528,34.365 68.027,35.625 68.567 C 41.973 71.288,41.316 70.081,41.326 79.047 C 41.334 86.376,41.326 86.441,40.295 87.227 C 39.455 87.868,38.835 87.941,37.956 87.502 C 36.581 86.815,36.595 86.883,36.500 80.167 L 36.417 74.250 33.833 73.206 C 32.412 72.632,30.313 71.785,29.167 71.324 C 26.774 70.360,26.222 70.023,25.664 69.186 C 25.064 68.287,24.998 66.509,25.529 65.549 C 25.968 64.755,34.279 55.218,34.868 54.833 C 35.814 54.215,36.961 54.043,38.083 54.352 M172.583 55.667 C 172.527 55.758,172.040 55.833,171.502 55.833 C 170.325 55.833,167.982 56.143,167.750 56.329 C 167.658 56.403,167.152 56.558,166.625 56.675 C 166.098 56.791,165.667 56.949,165.667 57.027 C 165.667 57.104,165.587 57.167,165.490 57.167 C 165.214 57.167,163.500 58.010,163.500 58.145 C 163.500 58.212,163.237 58.361,162.917 58.477 C 162.596 58.593,162.333 58.753,162.333 58.833 C 162.333 58.912,162.192 59.022,162.020 59.077 C 161.706 59.176,158.834 61.941,158.833 62.143 C 158.833 62.202,158.643 62.470,158.412 62.740 C 158.180 63.009,157.948 63.397,157.897 63.603 C 157.845 63.808,157.698 64.016,157.568 64.066 C 157.439 64.116,157.333 64.271,157.333 64.411 C 157.333 64.552,157.261 64.667,157.173 64.667 C 157.085 64.667,156.923 64.967,156.814 65.333 C 156.704 65.700,156.563 66.000,156.500 66.000 C 156.438 66.000,156.284 66.319,156.159 66.708 C 156.033 67.098,155.878 67.454,155.814 67.501 C 155.749 67.547,155.599 68.072,155.479 68.667 C 155.359 69.263,155.213 69.787,155.155 69.833 C 155.002 69.953,154.667 72.363,154.667 73.340 C 154.667 73.795,154.592 74.167,154.500 74.167 C 154.395 74.167,154.333 75.302,154.333 77.240 C 154.333 79.109,154.399 80.354,154.500 80.417 C 154.592 80.473,154.667 80.850,154.667 81.253 C 154.667 82.156,155.009 84.553,155.155 84.667 C 155.213 84.712,155.359 85.237,155.478 85.833 C 155.597 86.429,155.763 86.942,155.847 86.972 C 155.931 87.003,156.000 87.167,156.000 87.337 C 156.000 87.728,157.499 90.705,157.786 90.883 C 157.904 90.957,158.000 91.085,158.000 91.168 C 158.000 91.454,159.263 93.096,160.037 93.816 C 161.396 95.082,162.554 96.000,162.792 96.000 C 162.906 96.000,163.000 96.057,163.000 96.126 C 163.000 96.195,163.244 96.359,163.542 96.491 C 163.840 96.622,164.179 96.825,164.297 96.942 C 164.415 97.058,164.771 97.202,165.089 97.262 C 165.407 97.322,165.667 97.431,165.667 97.505 C 165.667 97.579,165.892 97.690,166.168 97.750 C 166.444 97.811,166.876 97.960,167.127 98.081 C 167.378 98.203,168.071 98.356,168.667 98.421 C 169.262 98.487,169.804 98.625,169.869 98.728 C 170.035 98.991,177.022 98.991,177.349 98.729 C 177.478 98.626,178.001 98.491,178.511 98.429 C 179.022 98.367,179.649 98.208,179.905 98.075 C 180.162 97.942,180.457 97.833,180.561 97.832 C 180.665 97.832,180.949 97.727,181.192 97.601 C 181.435 97.474,181.904 97.281,182.234 97.172 C 182.564 97.063,182.833 96.913,182.833 96.838 C 182.833 96.764,183.016 96.657,183.238 96.601 C 183.461 96.545,183.742 96.406,183.863 96.291 C 183.984 96.177,184.293 95.975,184.549 95.843 C 184.806 95.710,185.271 95.354,185.583 95.051 C 185.895 94.748,186.194 94.500,186.247 94.500 C 186.415 94.500,188.078 92.675,188.449 92.083 C 188.564 91.900,188.773 91.506,188.914 91.208 C 189.056 90.910,189.245 90.667,189.336 90.667 C 189.426 90.667,189.500 90.588,189.500 90.491 C 189.500 90.394,189.645 89.998,189.821 89.610 C 189.998 89.222,190.197 88.683,190.263 88.411 C 190.330 88.139,190.442 87.879,190.511 87.832 C 190.680 87.720,191.000 85.369,191.000 84.238 L 191.000 83.333 185.770 83.333 C 179.908 83.333,180.269 83.250,180.112 84.643 C 180.057 85.134,179.943 85.621,179.859 85.726 C 179.776 85.831,179.652 86.098,179.583 86.320 C 179.410 86.886,177.701 88.545,177.000 88.828 C 176.679 88.958,176.374 89.126,176.323 89.200 C 176.043 89.605,171.116 89.608,170.850 89.203 C 170.795 89.120,170.549 89.002,170.303 88.942 C 170.058 88.882,169.744 88.720,169.607 88.583 C 169.470 88.446,169.308 88.333,169.247 88.333 C 168.984 88.333,167.674 86.795,167.480 86.257 C 167.363 85.933,167.212 85.667,167.145 85.667 C 167.078 85.667,166.932 85.254,166.819 84.750 C 166.706 84.246,166.556 83.833,166.485 83.833 C 166.414 83.833,166.304 83.232,166.240 82.496 C 166.175 81.761,166.058 81.119,165.978 81.070 C 165.791 80.954,165.788 73.714,165.976 73.598 C 166.054 73.550,166.168 72.970,166.229 72.309 C 166.291 71.649,166.402 71.028,166.476 70.929 C 166.551 70.831,166.704 70.319,166.818 69.792 C 166.931 69.265,167.086 68.833,167.162 68.833 C 167.238 68.833,167.379 68.608,167.475 68.333 C 167.571 68.058,167.723 67.833,167.813 67.833 C 167.904 67.833,168.022 67.692,168.077 67.519 C 168.227 67.046,168.862 66.422,169.465 66.156 C 169.759 66.025,170.000 65.874,170.000 65.819 C 170.000 65.765,170.319 65.626,170.708 65.510 C 171.098 65.395,171.547 65.233,171.706 65.150 C 172.074 64.959,174.880 64.953,175.092 65.142 C 175.179 65.220,175.606 65.380,176.042 65.497 C 176.477 65.614,176.833 65.766,176.833 65.835 C 176.833 65.903,177.077 66.058,177.375 66.179 C 177.673 66.299,177.954 66.449,178.000 66.511 C 178.046 66.574,178.233 66.833,178.417 67.088 C 178.600 67.343,178.881 67.689,179.040 67.858 C 179.200 68.026,179.425 68.465,179.539 68.832 C 179.654 69.199,179.799 69.500,179.861 69.500 C 179.923 69.500,180.023 70.006,180.083 70.625 C 180.144 71.244,180.230 71.881,180.275 72.042 C 180.350 72.312,180.751 72.333,185.678 72.333 L 191.000 72.333 190.999 71.375 C 190.997 70.062,190.686 67.449,190.518 67.340 C 190.443 67.290,190.331 66.950,190.270 66.583 C 190.164 65.953,189.534 64.347,189.322 64.167 C 189.268 64.121,189.117 63.840,188.988 63.542 C 188.858 63.244,188.695 63.000,188.626 63.000 C 188.557 63.000,188.500 62.892,188.500 62.759 C 188.500 62.627,188.369 62.421,188.208 62.301 C 188.048 62.181,187.815 61.885,187.690 61.643 C 187.565 61.401,187.284 61.107,187.065 60.990 C 186.846 60.873,186.667 60.725,186.667 60.660 C 186.667 60.445,185.125 59.000,184.895 59.000 C 184.769 59.000,184.667 58.923,184.667 58.829 C 184.667 58.735,184.479 58.587,184.250 58.500 C 184.021 58.413,183.833 58.277,183.833 58.197 C 183.833 58.118,183.533 57.963,183.167 57.853 C 182.800 57.743,182.500 57.581,182.500 57.493 C 182.500 57.405,182.421 57.333,182.324 57.333 C 182.227 57.333,181.834 57.190,181.449 57.015 C 181.065 56.840,180.469 56.644,180.125 56.580 C 179.781 56.516,179.500 56.406,179.500 56.337 C 179.500 56.181,176.876 55.833,175.707 55.833 C 175.237 55.833,174.807 55.758,174.750 55.667 C 174.693 55.575,174.206 55.500,173.667 55.500 C 173.127 55.500,172.640 55.575,172.583 55.667 M232.583 55.667 C 232.527 55.758,231.993 55.833,231.397 55.833 C 230.207 55.833,228.013 56.130,227.750 56.326 C 227.658 56.394,227.115 56.547,226.542 56.664 C 225.969 56.782,225.500 56.938,225.500 57.010 C 225.500 57.081,225.275 57.190,225.000 57.250 C 224.725 57.310,224.500 57.423,224.500 57.500 C 224.500 57.578,224.223 57.732,223.884 57.844 C 223.272 58.046,223.101 58.152,222.488 58.708 C 222.311 58.869,222.100 59.000,222.017 59.000 C 221.935 59.000,221.692 59.186,221.476 59.414 C 221.260 59.641,221.015 59.829,220.931 59.830 C 220.768 59.834,219.667 61.015,219.667 61.187 C 219.667 61.245,219.404 61.578,219.083 61.928 C 218.762 62.279,218.500 62.663,218.500 62.783 C 218.500 62.902,218.425 63.000,218.333 63.000 C 218.242 63.000,218.167 63.087,218.167 63.192 C 218.167 63.298,217.982 63.774,217.757 64.250 C 217.531 64.729,217.297 65.611,217.234 66.224 C 217.172 66.834,217.056 67.333,216.977 67.333 C 216.787 67.333,216.790 69.954,216.980 70.071 C 217.061 70.121,217.180 70.651,217.244 71.249 C 217.308 71.847,217.455 72.432,217.572 72.548 C 217.688 72.664,217.880 73.053,217.998 73.412 C 218.212 74.060,218.315 74.229,218.875 74.845 C 219.035 75.022,219.167 75.208,219.167 75.258 C 219.167 75.430,220.630 76.833,220.809 76.833 C 220.908 76.833,221.068 76.982,221.166 77.165 C 221.263 77.347,221.528 77.543,221.755 77.599 C 221.981 77.656,222.167 77.761,222.167 77.831 C 222.167 77.902,222.392 78.053,222.667 78.167 C 222.942 78.281,223.167 78.428,223.167 78.494 C 223.167 78.560,223.467 78.704,223.833 78.814 C 224.200 78.923,224.500 79.085,224.500 79.173 C 224.500 79.261,224.579 79.333,224.676 79.333 C 224.773 79.333,225.185 79.485,225.592 79.671 C 226.000 79.856,226.577 80.056,226.875 80.114 C 227.173 80.172,227.456 80.279,227.505 80.352 C 227.554 80.425,228.097 80.580,228.713 80.697 C 229.329 80.814,229.833 80.959,229.833 81.021 C 229.833 81.082,230.471 81.227,231.250 81.343 C 232.029 81.459,232.667 81.602,232.667 81.661 C 232.667 81.720,233.229 81.863,233.917 81.978 C 234.604 82.094,235.167 82.250,235.167 82.326 C 235.167 82.401,235.440 82.514,235.774 82.577 C 236.109 82.640,236.540 82.791,236.733 82.912 C 236.926 83.034,237.321 83.183,237.611 83.244 C 237.901 83.304,238.180 83.462,238.231 83.594 C 238.281 83.725,238.408 83.833,238.513 83.833 C 238.764 83.833,239.493 84.531,239.497 84.774 C 239.499 84.879,239.601 85.003,239.725 85.051 C 240.244 85.250,240.163 87.845,239.621 88.412 C 239.508 88.530,239.309 88.782,239.177 88.972 C 239.045 89.163,238.726 89.406,238.468 89.513 C 238.211 89.620,238.000 89.768,238.000 89.842 C 238.000 89.916,237.569 90.068,237.042 90.181 C 236.515 90.294,236.012 90.449,235.925 90.526 C 235.696 90.729,232.000 90.704,232.000 90.500 C 232.000 90.408,231.794 90.333,231.542 90.332 C 230.963 90.331,229.833 90.023,229.833 89.866 C 229.833 89.801,229.599 89.644,229.312 89.517 C 228.067 88.966,226.883 87.254,226.716 85.761 C 226.566 84.424,226.904 84.500,221.083 84.500 C 217.114 84.500,215.836 84.550,215.712 84.708 C 215.529 84.943,215.637 87.167,215.831 87.167 C 215.900 87.167,216.007 87.542,216.068 88.000 C 216.128 88.458,216.235 88.833,216.305 88.833 C 216.374 88.833,216.521 89.171,216.631 89.583 C 216.742 89.996,216.901 90.333,216.986 90.333 C 217.071 90.333,217.191 90.563,217.252 90.845 C 217.314 91.126,217.470 91.396,217.599 91.446 C 217.728 91.495,217.833 91.621,217.834 91.726 C 217.834 92.296,220.969 95.356,222.062 95.854 C 222.303 95.964,222.500 96.105,222.500 96.167 C 222.500 96.229,222.800 96.370,223.167 96.480 C 223.533 96.590,223.833 96.742,223.833 96.818 C 223.833 96.894,224.171 97.051,224.583 97.167 C 224.996 97.282,225.333 97.435,225.333 97.507 C 225.333 97.579,225.633 97.688,226.000 97.750 C 226.367 97.812,226.667 97.922,226.667 97.994 C 226.667 98.067,227.285 98.220,228.042 98.335 C 228.798 98.450,229.522 98.628,229.651 98.730 C 229.975 98.989,237.467 98.987,238.016 98.729 C 238.237 98.625,238.974 98.454,239.655 98.349 C 240.336 98.244,240.974 98.091,241.072 98.010 C 241.170 97.929,241.531 97.811,241.875 97.746 C 242.219 97.682,242.500 97.571,242.500 97.500 C 242.500 97.429,242.760 97.322,243.078 97.262 C 243.396 97.202,243.754 97.055,243.874 96.935 C 243.994 96.815,244.372 96.625,244.713 96.512 C 245.054 96.400,245.333 96.250,245.333 96.180 C 245.333 96.111,245.524 95.967,245.756 95.861 C 246.421 95.558,249.500 92.688,249.500 92.371 C 249.500 92.283,249.645 92.027,249.823 91.801 C 250.001 91.575,250.201 91.172,250.268 90.905 C 250.335 90.638,250.486 90.324,250.604 90.206 C 250.721 90.088,250.869 89.542,250.931 88.992 C 250.993 88.442,251.109 87.952,251.189 87.903 C 251.375 87.788,251.379 83.833,251.193 83.833 C 251.116 83.833,250.960 83.308,250.845 82.667 C 250.730 82.025,250.571 81.500,250.492 81.500 C 250.412 81.500,250.257 81.200,250.147 80.833 C 250.037 80.467,249.889 80.167,249.818 80.167 C 249.747 80.167,249.645 80.026,249.590 79.855 C 249.482 79.514,247.494 77.333,247.292 77.333 C 247.223 77.333,247.022 77.202,246.845 77.042 C 246.360 76.601,246.124 76.434,245.667 76.208 C 245.438 76.095,245.137 75.929,245.000 75.840 C 244.560 75.555,243.183 74.995,242.667 74.892 C 242.392 74.837,242.167 74.736,242.167 74.669 C 242.167 74.601,241.717 74.450,241.167 74.333 C 240.617 74.217,240.167 74.067,240.167 74.000 C 240.167 73.934,239.585 73.786,238.875 73.671 C 238.165 73.557,237.546 73.409,237.500 73.342 C 237.454 73.275,236.967 73.136,236.417 73.034 C 233.853 72.556,232.576 72.273,232.500 72.165 C 232.454 72.100,232.023 71.948,231.542 71.826 C 231.060 71.704,230.667 71.558,230.667 71.502 C 230.667 71.446,230.404 71.305,230.083 71.189 C 229.762 71.073,229.500 70.920,229.500 70.849 C 229.500 70.778,229.313 70.635,229.083 70.530 C 228.854 70.426,228.667 70.251,228.667 70.142 C 228.667 70.032,228.535 69.798,228.375 69.621 C 227.391 68.533,228.645 65.226,230.228 64.733 C 230.423 64.672,230.626 64.555,230.679 64.474 C 231.011 63.959,236.441 63.938,236.819 64.451 C 236.873 64.524,237.137 64.696,237.406 64.834 C 238.061 65.168,238.580 65.700,238.855 66.322 C 238.979 66.603,239.137 66.833,239.205 66.833 C 239.274 66.833,239.377 67.133,239.436 67.500 C 239.495 67.867,239.608 68.167,239.688 68.167 C 239.768 68.167,239.833 68.429,239.833 68.750 L 239.833 69.333 245.583 69.333 L 251.333 69.333 251.333 68.927 C 251.333 68.703,251.258 68.473,251.167 68.417 C 251.075 68.360,251.000 68.005,251.000 67.629 C 251.000 66.663,250.662 64.833,250.483 64.833 C 250.401 64.833,250.333 64.694,250.333 64.523 C 250.333 64.150,249.473 62.503,248.956 61.886 C 248.030 60.782,246.927 59.667,246.762 59.667 C 246.662 59.667,246.487 59.517,246.372 59.333 C 246.258 59.150,246.052 59.000,245.915 59.000 C 245.779 59.000,245.667 58.934,245.667 58.854 C 245.667 58.773,245.442 58.614,245.167 58.500 C 244.892 58.386,244.667 58.230,244.667 58.153 C 244.667 58.076,244.367 57.923,244.000 57.814 C 243.633 57.704,243.333 57.554,243.333 57.481 C 243.333 57.408,243.071 57.299,242.750 57.239 C 242.429 57.179,242.167 57.071,242.167 57.000 C 242.167 56.928,241.679 56.773,241.083 56.654 C 240.487 56.536,240.000 56.387,240.000 56.325 C 240.000 56.169,237.297 55.833,236.040 55.833 C 235.479 55.833,234.973 55.758,234.917 55.667 C 234.860 55.575,234.335 55.500,233.750 55.500 C 233.165 55.500,232.640 55.575,232.583 55.667 M274.917 55.667 C 274.860 55.758,274.371 55.833,273.830 55.833 C 272.696 55.833,270.290 56.160,270.167 56.330 C 270.121 56.394,269.708 56.536,269.250 56.645 C 268.457 56.834,267.346 57.300,267.167 57.518 C 267.121 57.574,266.802 57.720,266.458 57.843 C 266.115 57.966,265.833 58.113,265.833 58.169 C 265.833 58.225,265.571 58.374,265.250 58.500 C 264.929 58.626,264.667 58.792,264.667 58.869 C 264.667 58.945,264.479 59.080,264.250 59.167 C 264.021 59.254,263.833 59.397,263.833 59.485 C 263.833 59.572,263.702 59.687,263.542 59.738 C 263.041 59.900,261.512 61.448,260.583 62.733 C 260.400 62.986,260.121 63.347,259.963 63.533 C 259.806 63.720,259.627 64.033,259.566 64.228 C 259.505 64.423,259.405 64.621,259.345 64.667 C 259.100 64.851,258.366 66.284,258.257 66.792 C 258.193 67.090,258.081 67.333,258.010 67.333 C 257.938 67.333,257.783 67.783,257.667 68.333 C 257.550 68.883,257.397 69.333,257.326 69.333 C 257.256 69.333,257.144 69.727,257.079 70.208 C 257.013 70.690,256.901 71.121,256.830 71.167 C 256.234 71.548,256.226 82.936,256.821 83.332 C 256.891 83.378,256.998 83.788,257.059 84.241 C 257.120 84.694,257.233 85.107,257.311 85.158 C 257.390 85.208,257.506 85.605,257.570 86.040 C 257.634 86.474,257.780 86.924,257.895 87.040 C 258.009 87.155,258.202 87.606,258.323 88.042 C 258.444 88.477,258.597 88.833,258.662 88.833 C 258.727 88.833,258.879 89.133,259.000 89.500 C 259.121 89.867,259.285 90.167,259.364 90.167 C 259.443 90.167,259.580 90.354,259.667 90.583 C 259.754 90.813,259.902 91.000,259.996 91.000 C 260.090 91.000,260.167 91.082,260.167 91.182 C 260.167 91.792,264.129 95.727,264.958 95.940 C 265.165 95.993,265.333 96.098,265.333 96.174 C 265.333 96.250,265.596 96.407,265.917 96.523 C 266.237 96.639,266.500 96.782,266.500 96.840 C 266.500 96.899,266.800 97.046,267.167 97.167 C 267.533 97.288,267.833 97.450,267.833 97.527 C 267.833 97.604,267.936 97.667,268.062 97.667 C 268.187 97.667,268.753 97.814,269.318 97.995 C 269.883 98.176,270.737 98.374,271.215 98.436 C 271.692 98.498,272.137 98.632,272.202 98.733 C 272.371 98.993,279.800 98.989,279.964 98.728 C 280.030 98.625,280.571 98.487,281.167 98.421 C 281.762 98.356,282.464 98.199,282.725 98.072 C 282.986 97.946,283.455 97.794,283.767 97.736 C 284.078 97.677,284.333 97.575,284.333 97.508 C 284.333 97.441,284.633 97.296,285.000 97.186 C 285.367 97.077,285.667 96.921,285.667 96.840 C 285.667 96.759,285.897 96.643,286.178 96.581 C 286.459 96.519,286.728 96.368,286.775 96.244 C 286.822 96.121,287.081 95.972,287.349 95.913 C 287.617 95.854,287.913 95.662,288.007 95.486 C 288.101 95.311,288.261 95.167,288.362 95.167 C 288.665 95.167,291.822 91.855,291.930 91.424 C 291.985 91.204,292.136 90.984,292.265 90.934 C 292.394 90.884,292.500 90.729,292.500 90.589 C 292.500 90.448,292.564 90.333,292.641 90.333 C 292.818 90.333,293.833 88.416,293.833 88.081 C 293.833 87.945,293.907 87.833,293.998 87.833 C 294.088 87.833,294.247 87.496,294.351 87.083 C 294.455 86.671,294.589 86.333,294.650 86.333 C 294.711 86.333,294.860 85.790,294.982 85.125 C 295.104 84.460,295.268 83.836,295.348 83.737 C 295.428 83.638,295.544 82.904,295.605 82.106 C 295.667 81.308,295.780 80.616,295.858 80.568 C 296.044 80.453,296.043 74.380,295.858 74.265 C 295.779 74.217,295.663 73.483,295.599 72.635 C 295.535 71.786,295.425 71.053,295.355 71.004 C 295.284 70.956,295.132 70.373,295.015 69.708 C 294.898 69.044,294.747 68.500,294.678 68.500 C 294.609 68.500,294.454 68.087,294.333 67.583 C 294.212 67.079,294.056 66.667,293.987 66.667 C 293.917 66.667,293.810 66.441,293.750 66.165 C 293.689 65.889,293.552 65.567,293.445 65.450 C 293.232 65.217,292.900 64.670,292.540 63.958 C 292.413 63.706,292.249 63.500,292.175 63.500 C 292.101 63.500,291.949 63.280,291.838 63.012 C 291.727 62.744,291.531 62.483,291.401 62.434 C 291.272 62.384,291.165 62.248,291.163 62.130 C 291.160 62.013,290.700 61.504,290.139 61.000 C 289.578 60.496,288.896 59.879,288.623 59.630 C 288.351 59.381,287.987 59.132,287.814 59.077 C 287.641 59.022,287.500 58.912,287.500 58.833 C 287.500 58.753,287.237 58.593,286.917 58.477 C 286.596 58.361,286.333 58.212,286.333 58.146 C 286.333 58.080,286.052 57.934,285.708 57.822 C 285.365 57.710,285.046 57.564,285.000 57.497 C 284.868 57.305,283.473 56.716,282.833 56.583 C 282.512 56.516,282.175 56.404,282.083 56.333 C 281.853 56.155,279.318 55.833,278.150 55.833 C 277.620 55.833,277.140 55.758,277.083 55.667 C 277.027 55.575,276.539 55.500,276.000 55.500 C 275.461 55.500,274.973 55.575,274.917 55.667 M135.874 77.292 L 135.917 98.083 141.625 98.127 L 147.333 98.171 147.333 77.336 L 147.333 56.500 141.583 56.500 L 135.832 56.500 135.874 77.292 M197.667 77.336 L 197.667 98.171 203.375 98.127 L 209.083 98.083 209.126 77.292 L 209.168 56.500 203.417 56.500 L 197.667 56.500 197.667 77.336 M277.833 65.127 C 277.833 65.197,278.211 65.344,278.672 65.454 C 279.133 65.563,279.625 65.768,279.767 65.910 C 279.908 66.051,280.121 66.167,280.241 66.167 C 280.519 66.167,282.271 68.040,282.414 68.491 C 282.474 68.679,282.592 68.833,282.678 68.833 C 282.763 68.833,282.833 68.930,282.833 69.048 C 282.833 69.166,282.979 69.549,283.157 69.898 C 283.335 70.247,283.532 70.769,283.595 71.058 C 283.657 71.347,283.768 71.621,283.840 71.668 C 284.477 72.076,284.453 82.734,283.815 82.972 C 283.734 83.003,283.666 83.190,283.666 83.389 C 283.665 83.587,283.561 83.949,283.434 84.192 C 283.307 84.435,283.114 84.904,283.005 85.234 C 282.897 85.564,282.747 85.833,282.674 85.833 C 282.601 85.833,282.447 86.058,282.333 86.333 C 282.219 86.608,282.058 86.833,281.976 86.833 C 281.893 86.833,281.754 87.021,281.667 87.250 C 281.580 87.479,281.434 87.667,281.343 87.667 C 281.252 87.667,280.956 87.884,280.684 88.150 C 280.412 88.416,279.927 88.720,279.605 88.826 C 279.284 88.932,278.998 89.085,278.969 89.166 C 278.818 89.593,273.982 89.623,273.449 89.201 C 273.340 89.114,272.975 88.955,272.640 88.847 C 272.304 88.739,271.755 88.392,271.420 88.075 C 271.084 87.759,270.740 87.500,270.655 87.500 C 270.570 87.500,270.500 87.406,270.500 87.292 C 270.500 87.177,270.314 86.868,270.088 86.605 C 269.861 86.341,269.631 85.985,269.577 85.813 C 269.522 85.641,269.414 85.500,269.335 85.500 C 269.257 85.500,269.140 85.256,269.076 84.958 C 269.011 84.660,268.890 84.373,268.808 84.321 C 268.725 84.268,268.570 83.743,268.463 83.154 C 268.356 82.565,268.189 82.030,268.093 81.964 C 267.852 81.802,267.849 73.201,268.090 73.036 C 268.185 72.970,268.356 72.354,268.470 71.667 C 268.585 70.979,268.751 70.392,268.839 70.361 C 268.928 70.331,269.000 70.226,269.000 70.128 C 269.000 69.360,271.386 66.167,271.960 66.167 C 272.060 66.167,272.259 66.051,272.400 65.910 C 272.541 65.768,273.034 65.563,273.495 65.454 C 273.956 65.344,274.333 65.197,274.333 65.127 C 274.333 65.057,275.121 65.000,276.083 65.000 C 277.046 65.000,277.833 65.057,277.833 65.127 M109.417 74.065 C 111.067 74.341,112.000 74.554,112.000 74.656 C 112.000 74.717,112.281 74.867,112.625 74.990 C 112.969 75.113,113.550 75.534,113.917 75.927 C 114.868 76.944,114.931 77.035,115.152 77.707 C 115.262 78.040,115.442 78.342,115.551 78.378 C 115.890 78.491,115.823 83.639,115.476 84.167 C 115.325 84.396,115.150 84.755,115.088 84.964 C 114.953 85.416,113.204 87.167,112.887 87.167 C 112.766 87.167,112.667 87.233,112.667 87.315 C 112.667 87.396,112.329 87.563,111.917 87.685 C 111.504 87.806,111.167 87.960,111.167 88.026 C 111.167 88.092,110.642 88.198,110.000 88.261 C 109.358 88.325,108.833 88.442,108.833 88.522 C 108.833 88.601,106.396 88.667,103.417 88.667 L 98.000 88.667 98.000 81.246 L 98.000 73.824 103.375 73.889 C 106.331 73.925,109.050 74.004,109.417 74.065 M27.155 75.666 C 34.447 78.256,36.470 87.251,30.985 92.700 C 24.565 99.080,13.667 94.497,13.667 85.417 C 13.667 78.415,20.660 73.360,27.155 75.666 M57.568 75.741 C 64.624 78.454,66.580 87.294,61.304 92.627 C 55.669 98.321,45.723 95.474,44.075 87.694 C 42.392 79.757,50.146 72.888,57.568 75.741 M22.583 77.686 C 17.668 78.384,14.656 84.044,16.755 88.639 C 19.787 95.276,29.576 94.456,31.411 87.411 C 32.842 81.916,28.270 76.879,22.583 77.686 M52.859 77.686 C 46.816 78.433,44.133 86.139,48.327 90.708 C 53.125 95.934,61.833 92.506,61.833 85.391 C 61.833 80.528,57.810 77.074,52.859 77.686 " stroke="none" fill="#040404" fill-rule="evenodd"></path></g></svg>